<svg width="24" height="24" viewBox="0 0 24 24" fill="none" xmlns="http://www.w3.org/2000/svg">
<path d="M23.121 9.06911L15.536 1.48311C14.5973 0.5471 13.3257 0.0214844 12 0.0214844C10.6744 0.0214844 9.40277 0.5471 8.46402 1.48311L0.879012 9.06911C0.599437 9.34689 0.377782 9.67741 0.226894 10.0415C0.0760073 10.4055 -0.0011104 10.796 1.20795e-05 11.1901V21.0071C1.20795e-05 21.8027 0.316082 22.5658 0.878691 23.1284C1.4413 23.691 2.20437 24.0071 3.00002 24.0071H21C21.7957 24.0071 22.5587 23.691 23.1213 23.1284C23.684 22.5658 24 21.8027 24 21.0071V11.1901C24.0012 10.796 23.924 10.4055 23.7731 10.0415C23.6223 9.67741 23.4006 9.34689 23.121 9.06911ZM15 22.0071H9.00002V18.0731C9.00002 17.2774 9.31609 16.5144 9.8787 15.9517C10.4413 15.3891 11.2044 15.0731 12 15.0731C12.7957 15.0731 13.5587 15.3891 14.1213 15.9517C14.684 16.5144 15 17.2774 15 18.0731V22.0071ZM22 21.0071C22 21.2723 21.8947 21.5266 21.7071 21.7142C21.5196 21.9017 21.2652 22.0071 21 22.0071H17V18.0731C17 16.747 16.4732 15.4752 15.5356 14.5375C14.5979 13.5999 13.3261 13.0731 12 13.0731C10.6739 13.0731 9.40217 13.5999 8.46448 14.5375C7.5268 15.4752 7.00002 16.747 7.00002 18.0731V22.0071H3.00002C2.7348 22.0071 2.48045 21.9017 2.29291 21.7142C2.10537 21.5266 2.00002 21.2723 2.00002 21.0071V11.1901C2.00094 10.925 2.10621 10.6711 2.29302 10.4831L9.87802 2.90011C10.4417 2.33904 11.2047 2.02405 12 2.02405C12.7954 2.02405 13.5583 2.33904 14.122 2.90011L21.707 10.4861C21.8931 10.6733 21.9983 10.9261 22 11.1901V21.0071Z" fill="#1B1F3B"/>
</svg>
