<svg width="24" height="24" viewBox="0 0 24 24" fill="none" xmlns="http://www.w3.org/2000/svg">
<g clip-path="url(#clip0_1815_6026)">
<path fill-rule="evenodd" clip-rule="evenodd" d="M22.4214 5.90317V3.39812C22.4214 2.21659 21.4602 1.25537 20.2787 1.25537H2.14275C0.961219 1.25537 0 2.21659 0 3.39812V14.4402C0 15.6218 0.961219 16.583 2.14275 16.583H7.16414L6.88603 18.8345H5.64103C4.563 18.8345 3.68602 19.7115 3.68602 20.7895C3.68602 21.8675 4.563 22.7446 5.64103 22.7446H15.9002H21.7522C22.9916 22.7446 24 21.7362 24 20.4967V8.04925C24 7.04275 23.3351 6.18868 22.4214 5.90317ZM1.5 14.4402V3.39812C1.5 3.0437 1.78833 2.75537 2.14275 2.75537H20.2786C20.6331 2.75537 20.9214 3.0437 20.9214 3.39812V5.80145H15.9002C14.6608 5.80145 13.6524 6.80982 13.6524 8.04929V15.083H2.14275C1.78833 15.083 1.5 14.7947 1.5 14.4402ZM8.67553 16.583H13.6524V18.8344H8.39747L8.67553 16.583ZM5.18602 20.7895C5.18602 20.5428 5.39437 20.3344 5.64103 20.3344H13.6524V20.4966C13.6524 20.7587 13.698 21.0103 13.7808 21.2445H5.64103C5.39442 21.2445 5.18602 21.0361 5.18602 20.7895ZM22.5 20.4967C22.5 20.909 22.1645 21.2445 21.7522 21.2445H15.9002C15.4879 21.2445 15.1524 20.909 15.1524 20.4967V8.04925C15.1524 7.63689 15.4879 7.3014 15.9002 7.3014H21.7522C22.1645 7.3014 22.5 7.63689 22.5 8.04925V20.4967ZM19.9159 19.0692C19.9159 19.6694 19.4264 20.1589 18.8262 20.1589C18.226 20.1589 17.7366 19.6694 17.7366 19.0692C17.7366 18.4691 18.2261 17.9796 18.8262 17.9796C19.4264 17.9796 19.9159 18.469 19.9159 19.0692Z" fill="#1B1F3B"/>
</g>
<defs>
<clipPath id="clip0_1815_6026">
<rect width="24" height="24" fill="white"/>
</clipPath>
</defs>
</svg>
