<svg width="24" height="24" viewBox="0 0 24 24" fill="none" xmlns="http://www.w3.org/2000/svg">
<path d="M17.0002 0H8.00012V16H22.0002V5C22.0002 3.67392 21.4734 2.40215 20.5357 1.46447C19.598 0.526784 18.3262 0 17.0002 0Z" fill="#1B1F3B"/>
<path d="M4.39512 16.061C4.59422 16.0203 4.79691 15.9999 5.00012 16H6.00012V0.0999756C4.87076 0.330506 3.85573 0.944157 3.12682 1.83707C2.39791 2.72999 1.99989 3.84732 2.00012 4.99998V17.025C2.69918 16.4975 3.5256 16.1649 4.39512 16.061Z" fill="#1B1F3B"/>
<path d="M22.0002 18H5.00012C4.20447 18 3.44141 18.3161 2.8788 18.8787C2.31619 19.4413 2.00012 20.2044 2.00012 21C2.00012 21.7956 2.31619 22.5587 2.8788 23.1213C3.44141 23.6839 4.20447 24 5.00012 24H17.0002C17.6568 24 18.3069 23.8707 18.9136 23.6194C19.5202 23.3681 20.0714 22.9998 20.5357 22.5355C21 22.0712 21.3683 21.52 21.6196 20.9134C21.8708 20.3068 22.0002 19.6566 22.0002 19V18Z" fill="#1B1F3B"/>
</svg>
